#!OML:ASF H:\Terrain\Patient Classification 1\Terrain2\Thursday\justin.ASF
:FULLY-SPECIFIED
:DEGREES
2119
root 16.856 20.6938 -11.898 657.39 86.727 298.412
lowerback 6.09131 -0.264136 -0.707075
upperback 1.36219 -0.26496 3.21302
thorax -1.99257 -0.100299 3.73491
lowerneck -14.3232 -3.88297 -9.16901
upperneck 34.0903 -3.65916 4.88029
head 14.3972 -1.7388 3.09864
rclavicle 2.23633e-015 -1.03368e-014
rhumerus -34.06 -9.75385 -78.4517
rradius 36.6949
rwrist -14.7379
rhand -21.4669 13.2674
rfingers 7.12502
rthumb 4.9235 -16.6554
lclavicle 2.23633e-015 -1.03368e-014
lhumerus -25.3081 0.161521 85.5189
lradius 40.0586
lwrist 10.4209
lhand -21.6416 20.9731
lfingers 7.12502
lthumb 4.75484 50.8998
rfemur -13.1036 -16.235 25.4529
rtibia 38.0234
rfoot -20.1193 -14.4639
rtoes 15.394
lfemur -15.6898 2.179 -18.4677
ltibia 28.7094
lfoot -5.31265 -15.7708
ltoes 23.894
2120
root 16.891 20.6818 -11.9048 659.285 86.0093 300.384
lowerback 6.05535 -0.131472 0.158515
upperback 1.40752 -0.029044 3.26083
thorax -1.94349 0.015218 3.27581
lowerneck -14.3868 -3.91737 -9.14304
upperneck 34.1998 -3.73758 4.96388
head 14.4701 -1.75652 3.11969
rclavicle 1.09332e-015 5.1684e-015
rhumerus -34.0144 -9.74769 -78.5037
rradius 36.7374
rwrist -14.5561
rhand -21.7446 13.127
rfingers 7.12502
rthumb 4.65542 -16.8018
lclavicle 1.09332e-015 5.1684e-015
lhumerus -25.0779 0.192684 85.5469
lradius 40.0136
lwrist 10.5147
lhand -21.6308 21.1455
lfingers 7.12502
lthumb 4.76532 51.0719
rfemur -12.7198 -17.0164 26.1359
rtibia 37.5588
rfoot -19.7281 -14.7615
rtoes 15.5807
lfemur -15.5471 2.32204 -17.8068
ltibia 28.9702
lfoot -5.69185 -15.5876
ltoes 23.2179
2121
root 16.924 20.6701 -11.8993 662.144 85.6481 303.221
lowerback 5.92607 0.0253527 0.515692
upperback 1.37313 0.199175 3.23415
thorax -1.91849 0.127588 3.02846
lowerneck -14.291 -4.03023 -9.2051
upperneck 34.2908 -3.92654 5.07579
head 14.5135 -1.82896 3.14997
rclavicle -4.12478e-015 -8.34896e-015
rhumerus -34.1204 -10.0079 -78.4498
rradius 36.833
rwrist -14.3067
rhand -21.5296 13.2674
rfingers 7.12502
rthumb 4.86295 -16.6568
lclavicle -4.12478e-015 -8.34896e-015
lhumerus -24.8761 0.482046 85.6141
lradius 39.8123
lwrist 9.93684
lhand -21.464 21.4964
lfingers 7.12502
lthumb 4.92631 51.4191
rfemur -12.4339 -17.4832 26.5129
rtibia 37.1487
rfoot -19.4901 -14.9187
rtoes 16.6404
lfemur -15.5103 2.38941 -17.5087
ltibia 29.2128
lfoot -6.00479 -15.418
ltoes 22.7108
2122
root 16.955 20.6667 -11.8838 667.755 85.9906 308.824
lowerback 5.85809 0.139092 -0.0288233
upperback 1.2959 0.306089 3.05275
thorax -1.96682 0.18055 3.13992
lowerneck -14.1394 -4.13037 -9.30893
upperneck 34.3425 -4.10868 5.24014
head 14.5284 -1.89729 3.20973
rclavicle -1.09332e-015 -7.95139e-015
rhumerus -34.2214 -10.2735 -78.3834
rradius 36.8651
rwrist -14.2113
rhand -20.9549 13.5811
rfingers 7.12502
rthumb 5.41785 -16.3296
lclavicle -1.09332e-015 -7.95139e-015
lhumerus -24.8166 0.736753 85.7054
lradius 39.6558
lwrist 9.51982
lhand -21.3044 21.5822
lfingers 7.12502
lthumb 5.08039 51.5013
rfemur -12.1308 -17.6102 26.1674
rtibia 36.7614
rfoot -19.6328 -15.2758
rtoes 18.9119
lfemur -15.4784 2.29472 -18.0236
ltibia 29.41
lfoot -6.50806 -15.1854
ltoes 21.5295
2123
root 16.9887 20.666 -11.8725 672.464 86.0803 313.571
lowerback 5.8079 0.157198 -0.360685
upperback 1.28406 0.304115 2.96774
thorax -1.95191 0.179457 3.23946
lowerneck -14.1762 -4.13211 -9.34048
upperneck 34.4379 -4.11427 5.28874
head 14.5839 -1.89697 3.23807
rclavicle -1.04362e-015 -2.74323e-014
rhumerus -34.0879 -10.1476 -78.4382
rradius 36.7278
rwrist -14.0344
rhand -20.7423 13.7565
rfingers 7.12502
rthumb 5.62317 -16.1489
lclavicle -1.04362e-015 -2.74323e-014
lhumerus -24.7896 0.948082 85.7159
lradius 39.6086
lwrist 9.73412
lhand -21.4819 21.3888
lfingers 7.12502
lthumb 4.90909 51.312
rfemur -11.7191 -17.8426 25.9945
rtibia 36.3619
rfoot -19.9187 -15.3832
rtoes 19.927
lfemur -15.32 2.17976 -18.2913
ltibia 29.5159
lfoot -7.01333 -14.8265
ltoes 20.7002
2124
root 17.0215 20.6683 -11.8663 673.037 85.4966 314.085
lowerback 5.66925 0.165413 0.0862543
upperback 1.24895 0.345079 3.06597
thorax -1.91137 0.198974 3.08565
lowerneck -14.1743 -4.07614 -9.32517
upperneck 34.4883 -3.99671 5.17788
head 14.5922 -1.86024 3.21025
rclavicle 2.73329e-016 -1.27222e-014
rhumerus -33.9974 -9.82853 -78.5317
rradius 36.6265
rwrist -13.8589
rhand -20.7174 14.0301
rfingers 7.12502
rthumb 5.64723 -15.8746
lclavicle 2.73329e-016 -1.27222e-014
lhumerus -24.8284 1.11415 85.703
lradius 39.5401
lwrist 9.98249
lhand -21.7302 21.1736
lfingers 7.12502
lthumb 4.66928 51.1022
rfemur -11.4351 -18.356 26.4826
rtibia 35.9013
rfoot -20.0701 -14.9741
rtoes 19.8115
lfemur -15.2179 2.22714 -17.7956
ltibia 29.5912
lfoot -7.39422 -14.3839
ltoes 20.3309
2125
root 17.0503 20.668 -11.8614 674.33 84.8868 315.26
lowerback 5.51152 0.229574 0.671405
upperback 1.1671 0.463019 3.0459
thorax -1.90937 0.255418 2.72624
lowerneck -14.0624 -4.0357 -9.16262
upperneck 34.5048 -3.96121 5.08563
head 14.5626 -1.83639 3.15022
rclavicle 2.28602e-015 -4.57205e-014
rhumerus -34.1216 -9.8935 -78.7372
rradius 36.6446
rwrist -13.5713
rhand -20.6328 13.9628
rfingers 7.12502
rthumb 5.72889 -15.9397
lclavicle 2.28602e-015 -4.57205e-014
lhumerus -24.9995 1.0558 85.6394
lradius 39.548
lwrist 10.0702
lhand -21.6197 21.1199
lfingers 7.12502
lthumb 4.77595 51.0461
rfemur -11.2526 -18.6477 26.9067
rtibia 35.3421
rfoot -20.1071 -14.6007
rtoes 19.8584
lfemur -15.2402 2.40061 -17.3422
ltibia 29.7516
lfoot -7.64375 -13.9844
ltoes 20.737
